<mxfile host="app.diagrams.net" modified="2023-10-11T04:58:42.966Z" agent="Mozilla/5.0 (X11; Linux x86_64) AppleWebKit/537.36 (KHTML, like Gecko) Chrome/117.0.0.0 Safari/537.36 Edg/117.0.2045.55" etag="ylpm-owei5NTLm6ndB3Z" version="22.0.4" type="github">
  <diagram name="Page-1" id="DFopCFdIPEEqWfNpjsTn">
    <mxGraphModel dx="1942" dy="1562" grid="1" gridSize="10" guides="1" tooltips="1" connect="1" arrows="1" fold="1" page="1" pageScale="1" pageWidth="850" pageHeight="1100" math="0" shadow="0">
      <root>
        <mxCell id="0" />
        <mxCell id="1" parent="0" />
        <mxCell id="BYB5my-5IRVZ9kW4JfYy-2" value="Users" style="html=1;dashed=0;whiteSpace=wrap;" vertex="1" parent="1">
          <mxGeometry x="30" y="-170" width="100" height="50" as="geometry" />
        </mxCell>
        <mxCell id="BYB5my-5IRVZ9kW4JfYy-3" value="Shipping and Logistics" style="html=1;dashed=0;whiteSpace=wrap;" vertex="1" parent="1">
          <mxGeometry x="600" y="115" width="100" height="50" as="geometry" />
        </mxCell>
        <mxCell id="BYB5my-5IRVZ9kW4JfYy-4" value="Customer Support Services" style="html=1;dashed=0;whiteSpace=wrap;" vertex="1" parent="1">
          <mxGeometry x="1065" y="315" width="100" height="50" as="geometry" />
        </mxCell>
        <mxCell id="BYB5my-5IRVZ9kW4JfYy-61" style="edgeStyle=orthogonalEdgeStyle;rounded=0;orthogonalLoop=1;jettySize=auto;html=1;exitX=0.5;exitY=0;exitDx=0;exitDy=0;entryX=0.5;entryY=1;entryDx=0;entryDy=0;" edge="1" parent="1" source="BYB5my-5IRVZ9kW4JfYy-60" target="BYB5my-5IRVZ9kW4JfYy-7">
          <mxGeometry relative="1" as="geometry" />
        </mxCell>
        <mxCell id="BYB5my-5IRVZ9kW4JfYy-5" value="Payment Processor" style="html=1;dashed=0;whiteSpace=wrap;" vertex="1" parent="1">
          <mxGeometry x="265" y="625" width="100" height="50" as="geometry" />
        </mxCell>
        <mxCell id="BYB5my-5IRVZ9kW4JfYy-7" value="Checkout" style="shape=ellipse;html=1;dashed=0;whiteSpace=wrap;perimeter=ellipsePerimeter;" vertex="1" parent="1">
          <mxGeometry x="215" y="365" width="110" height="100" as="geometry" />
        </mxCell>
        <mxCell id="BYB5my-5IRVZ9kW4JfYy-8" value="User Registration" style="shape=ellipse;html=1;dashed=0;whiteSpace=wrap;perimeter=ellipsePerimeter;" vertex="1" parent="1">
          <mxGeometry x="-160" y="265" width="110" height="100" as="geometry" />
        </mxCell>
        <mxCell id="BYB5my-5IRVZ9kW4JfYy-74" style="edgeStyle=orthogonalEdgeStyle;rounded=0;orthogonalLoop=1;jettySize=auto;html=1;exitX=1;exitY=0.5;exitDx=0;exitDy=0;" edge="1" parent="1" source="BYB5my-5IRVZ9kW4JfYy-75" target="BYB5my-5IRVZ9kW4JfYy-20">
          <mxGeometry relative="1" as="geometry" />
        </mxCell>
        <mxCell id="BYB5my-5IRVZ9kW4JfYy-9" value="Browse and Select Shoes" style="shape=ellipse;html=1;dashed=0;whiteSpace=wrap;perimeter=ellipsePerimeter;" vertex="1" parent="1">
          <mxGeometry x="325" y="220" width="110" height="100" as="geometry" />
        </mxCell>
        <mxCell id="BYB5my-5IRVZ9kW4JfYy-99" style="edgeStyle=orthogonalEdgeStyle;rounded=0;orthogonalLoop=1;jettySize=auto;html=1;exitX=1;exitY=0.5;exitDx=0;exitDy=0;entryX=0.75;entryY=0;entryDx=0;entryDy=0;" edge="1" parent="1" source="BYB5my-5IRVZ9kW4JfYy-100" target="BYB5my-5IRVZ9kW4JfYy-16">
          <mxGeometry relative="1" as="geometry" />
        </mxCell>
        <mxCell id="BYB5my-5IRVZ9kW4JfYy-103" style="edgeStyle=orthogonalEdgeStyle;rounded=0;orthogonalLoop=1;jettySize=auto;html=1;exitX=1;exitY=0.5;exitDx=0;exitDy=0;" edge="1" parent="1" source="BYB5my-5IRVZ9kW4JfYy-10" target="BYB5my-5IRVZ9kW4JfYy-100">
          <mxGeometry relative="1" as="geometry" />
        </mxCell>
        <mxCell id="BYB5my-5IRVZ9kW4JfYy-10" value="Account Management" style="shape=ellipse;html=1;dashed=0;whiteSpace=wrap;perimeter=ellipsePerimeter;" vertex="1" parent="1">
          <mxGeometry x="390" y="-300" width="110" height="100" as="geometry" />
        </mxCell>
        <mxCell id="BYB5my-5IRVZ9kW4JfYy-12" value="Customer Service" style="shape=ellipse;html=1;dashed=0;whiteSpace=wrap;perimeter=ellipsePerimeter;" vertex="1" parent="1">
          <mxGeometry x="70" y="465" width="110" height="100" as="geometry" />
        </mxCell>
        <mxCell id="BYB5my-5IRVZ9kW4JfYy-94" style="edgeStyle=orthogonalEdgeStyle;rounded=0;orthogonalLoop=1;jettySize=auto;html=1;exitX=1;exitY=0.5;exitDx=0;exitDy=0;" edge="1" parent="1" source="BYB5my-5IRVZ9kW4JfYy-14" target="BYB5my-5IRVZ9kW4JfYy-92">
          <mxGeometry relative="1" as="geometry" />
        </mxCell>
        <mxCell id="BYB5my-5IRVZ9kW4JfYy-14" value="Order fulfillment" style="shape=ellipse;html=1;dashed=0;whiteSpace=wrap;perimeter=ellipsePerimeter;" vertex="1" parent="1">
          <mxGeometry x="890" y="100" width="110" height="100" as="geometry" />
        </mxCell>
        <mxCell id="BYB5my-5IRVZ9kW4JfYy-16" value="User Database" style="html=1;dashed=0;whiteSpace=wrap;shape=partialRectangle;right=0;left=0;" vertex="1" parent="1">
          <mxGeometry x="700" y="-220" width="100" height="30" as="geometry" />
        </mxCell>
        <mxCell id="BYB5my-5IRVZ9kW4JfYy-17" value="Payment Database" style="html=1;dashed=0;whiteSpace=wrap;shape=partialRectangle;right=0;left=0;" vertex="1" parent="1">
          <mxGeometry x="410" y="535" width="100" height="30" as="geometry" />
        </mxCell>
        <mxCell id="BYB5my-5IRVZ9kW4JfYy-18" value="Order History Data" style="html=1;dashed=0;whiteSpace=wrap;shape=partialRectangle;right=0;left=0;" vertex="1" parent="1">
          <mxGeometry x="1230" y="165" width="100" height="30" as="geometry" />
        </mxCell>
        <mxCell id="BYB5my-5IRVZ9kW4JfYy-20" value="Shoe Product Database" style="html=1;dashed=0;whiteSpace=wrap;shape=partialRectangle;right=0;left=0;" vertex="1" parent="1">
          <mxGeometry x="715" y="320" width="100" height="30" as="geometry" />
        </mxCell>
        <mxCell id="BYB5my-5IRVZ9kW4JfYy-24" style="edgeStyle=orthogonalEdgeStyle;rounded=0;orthogonalLoop=1;jettySize=auto;html=1;exitX=0;exitY=1;exitDx=0;exitDy=0;entryX=0.364;entryY=0;entryDx=0;entryDy=0;entryPerimeter=0;" edge="1" parent="1" source="BYB5my-5IRVZ9kW4JfYy-42" target="BYB5my-5IRVZ9kW4JfYy-8">
          <mxGeometry relative="1" as="geometry" />
        </mxCell>
        <mxCell id="BYB5my-5IRVZ9kW4JfYy-25" style="edgeStyle=orthogonalEdgeStyle;rounded=0;orthogonalLoop=1;jettySize=auto;html=1;exitX=0.25;exitY=1;exitDx=0;exitDy=0;entryX=0;entryY=0.28;entryDx=0;entryDy=0;entryPerimeter=0;" edge="1" parent="1" source="BYB5my-5IRVZ9kW4JfYy-56" target="BYB5my-5IRVZ9kW4JfYy-12">
          <mxGeometry relative="1" as="geometry" />
        </mxCell>
        <mxCell id="BYB5my-5IRVZ9kW4JfYy-95" style="edgeStyle=orthogonalEdgeStyle;rounded=0;orthogonalLoop=1;jettySize=auto;html=1;exitX=0;exitY=0.5;exitDx=0;exitDy=0;entryX=0.75;entryY=1;entryDx=0;entryDy=0;" edge="1" parent="1" source="BYB5my-5IRVZ9kW4JfYy-96" target="BYB5my-5IRVZ9kW4JfYy-20">
          <mxGeometry relative="1" as="geometry" />
        </mxCell>
        <mxCell id="BYB5my-5IRVZ9kW4JfYy-98" style="edgeStyle=orthogonalEdgeStyle;rounded=0;orthogonalLoop=1;jettySize=auto;html=1;exitX=0;exitY=0.5;exitDx=0;exitDy=0;" edge="1" parent="1" source="BYB5my-5IRVZ9kW4JfYy-33" target="BYB5my-5IRVZ9kW4JfYy-96">
          <mxGeometry relative="1" as="geometry" />
        </mxCell>
        <mxCell id="BYB5my-5IRVZ9kW4JfYy-33" value="Inventory Management" style="shape=ellipse;html=1;dashed=0;whiteSpace=wrap;perimeter=ellipsePerimeter;" vertex="1" parent="1">
          <mxGeometry x="1010" y="420" width="110" height="100" as="geometry" />
        </mxCell>
        <mxCell id="BYB5my-5IRVZ9kW4JfYy-39" style="edgeStyle=orthogonalEdgeStyle;rounded=0;orthogonalLoop=1;jettySize=auto;html=1;exitX=1;exitY=1;exitDx=0;exitDy=0;entryX=0.382;entryY=0.02;entryDx=0;entryDy=0;entryPerimeter=0;" edge="1" parent="1" source="BYB5my-5IRVZ9kW4JfYy-44" target="BYB5my-5IRVZ9kW4JfYy-9">
          <mxGeometry relative="1" as="geometry" />
        </mxCell>
        <mxCell id="BYB5my-5IRVZ9kW4JfYy-40" style="edgeStyle=orthogonalEdgeStyle;rounded=0;orthogonalLoop=1;jettySize=auto;html=1;exitX=0.75;exitY=1;exitDx=0;exitDy=0;entryX=0.009;entryY=0.41;entryDx=0;entryDy=0;entryPerimeter=0;" edge="1" parent="1" source="BYB5my-5IRVZ9kW4JfYy-51" target="BYB5my-5IRVZ9kW4JfYy-7">
          <mxGeometry relative="1" as="geometry" />
        </mxCell>
        <mxCell id="BYB5my-5IRVZ9kW4JfYy-105" style="edgeStyle=orthogonalEdgeStyle;rounded=0;orthogonalLoop=1;jettySize=auto;html=1;exitX=1;exitY=0.5;exitDx=0;exitDy=0;" edge="1" parent="1" source="BYB5my-5IRVZ9kW4JfYy-106" target="BYB5my-5IRVZ9kW4JfYy-104">
          <mxGeometry relative="1" as="geometry" />
        </mxCell>
        <mxCell id="BYB5my-5IRVZ9kW4JfYy-41" value="Cart" style="shape=ellipse;html=1;dashed=0;whiteSpace=wrap;perimeter=ellipsePerimeter;" vertex="1" parent="1">
          <mxGeometry x="325" y="-170" width="110" height="100" as="geometry" />
        </mxCell>
        <mxCell id="BYB5my-5IRVZ9kW4JfYy-43" value="" style="edgeStyle=orthogonalEdgeStyle;rounded=0;orthogonalLoop=1;jettySize=auto;html=1;exitX=0;exitY=1;exitDx=0;exitDy=0;entryX=0.364;entryY=0;entryDx=0;entryDy=0;entryPerimeter=0;" edge="1" parent="1" source="BYB5my-5IRVZ9kW4JfYy-2" target="BYB5my-5IRVZ9kW4JfYy-42">
          <mxGeometry relative="1" as="geometry">
            <mxPoint x="30" y="-120" as="sourcePoint" />
            <mxPoint x="-40" y="265" as="targetPoint" />
          </mxGeometry>
        </mxCell>
        <mxCell id="BYB5my-5IRVZ9kW4JfYy-42" value="Account Creation" style="text;html=1;align=center;verticalAlign=middle;resizable=0;points=[];autosize=1;strokeColor=none;fillColor=none;" vertex="1" parent="1">
          <mxGeometry x="-150" y="60" width="120" height="30" as="geometry" />
        </mxCell>
        <mxCell id="BYB5my-5IRVZ9kW4JfYy-45" value="" style="edgeStyle=orthogonalEdgeStyle;rounded=0;orthogonalLoop=1;jettySize=auto;html=1;exitX=1;exitY=1;exitDx=0;exitDy=0;entryX=0.382;entryY=0.02;entryDx=0;entryDy=0;entryPerimeter=0;" edge="1" parent="1" source="BYB5my-5IRVZ9kW4JfYy-2" target="BYB5my-5IRVZ9kW4JfYy-44">
          <mxGeometry relative="1" as="geometry">
            <mxPoint x="130" y="-120" as="sourcePoint" />
            <mxPoint x="212" y="232" as="targetPoint" />
          </mxGeometry>
        </mxCell>
        <mxCell id="BYB5my-5IRVZ9kW4JfYy-44" value="Search and Select" style="text;html=1;align=center;verticalAlign=middle;resizable=0;points=[];autosize=1;strokeColor=none;fillColor=none;" vertex="1" parent="1">
          <mxGeometry x="190" y="30" width="120" height="30" as="geometry" />
        </mxCell>
        <mxCell id="BYB5my-5IRVZ9kW4JfYy-48" style="edgeStyle=orthogonalEdgeStyle;rounded=0;orthogonalLoop=1;jettySize=auto;html=1;exitX=1;exitY=0.5;exitDx=0;exitDy=0;entryX=0.036;entryY=0.39;entryDx=0;entryDy=0;entryPerimeter=0;" edge="1" parent="1" source="BYB5my-5IRVZ9kW4JfYy-49" target="BYB5my-5IRVZ9kW4JfYy-41">
          <mxGeometry relative="1" as="geometry" />
        </mxCell>
        <mxCell id="BYB5my-5IRVZ9kW4JfYy-50" value="" style="edgeStyle=orthogonalEdgeStyle;rounded=0;orthogonalLoop=1;jettySize=auto;html=1;exitX=1;exitY=0.5;exitDx=0;exitDy=0;entryX=0.036;entryY=0.39;entryDx=0;entryDy=0;entryPerimeter=0;" edge="1" parent="1" source="BYB5my-5IRVZ9kW4JfYy-2" target="BYB5my-5IRVZ9kW4JfYy-49">
          <mxGeometry relative="1" as="geometry">
            <mxPoint x="130" y="-145" as="sourcePoint" />
            <mxPoint x="294" y="-131" as="targetPoint" />
          </mxGeometry>
        </mxCell>
        <mxCell id="BYB5my-5IRVZ9kW4JfYy-49" value="Manages Cart&lt;br&gt;" style="text;html=1;align=center;verticalAlign=middle;resizable=0;points=[];autosize=1;strokeColor=none;fillColor=none;" vertex="1" parent="1">
          <mxGeometry x="175" y="-150" width="100" height="30" as="geometry" />
        </mxCell>
        <mxCell id="BYB5my-5IRVZ9kW4JfYy-52" value="" style="edgeStyle=orthogonalEdgeStyle;rounded=0;orthogonalLoop=1;jettySize=auto;html=1;exitX=0.75;exitY=1;exitDx=0;exitDy=0;entryX=0.009;entryY=0.41;entryDx=0;entryDy=0;entryPerimeter=0;" edge="1" parent="1" source="BYB5my-5IRVZ9kW4JfYy-2" target="BYB5my-5IRVZ9kW4JfYy-51">
          <mxGeometry relative="1" as="geometry">
            <mxPoint x="105" y="-120" as="sourcePoint" />
            <mxPoint x="216" y="406" as="targetPoint" />
          </mxGeometry>
        </mxCell>
        <mxCell id="BYB5my-5IRVZ9kW4JfYy-51" value="Initiates Payment" style="text;html=1;align=center;verticalAlign=middle;resizable=0;points=[];autosize=1;strokeColor=none;fillColor=none;" vertex="1" parent="1">
          <mxGeometry x="175" y="170" width="120" height="30" as="geometry" />
        </mxCell>
        <mxCell id="BYB5my-5IRVZ9kW4JfYy-54" value="" style="edgeStyle=orthogonalEdgeStyle;rounded=0;orthogonalLoop=1;jettySize=auto;html=1;exitX=0.75;exitY=0;exitDx=0;exitDy=0;entryX=0;entryY=0.5;entryDx=0;entryDy=0;" edge="1" parent="1" source="BYB5my-5IRVZ9kW4JfYy-2" target="BYB5my-5IRVZ9kW4JfYy-53">
          <mxGeometry relative="1" as="geometry">
            <mxPoint x="105" y="-170" as="sourcePoint" />
            <mxPoint x="325" y="-250" as="targetPoint" />
          </mxGeometry>
        </mxCell>
        <mxCell id="BYB5my-5IRVZ9kW4JfYy-53" value="Manages User Account" style="text;html=1;align=center;verticalAlign=middle;resizable=0;points=[];autosize=1;strokeColor=none;fillColor=none;" vertex="1" parent="1">
          <mxGeometry x="115" y="-250" width="150" height="30" as="geometry" />
        </mxCell>
        <mxCell id="BYB5my-5IRVZ9kW4JfYy-55" style="edgeStyle=orthogonalEdgeStyle;rounded=0;orthogonalLoop=1;jettySize=auto;html=1;entryX=0.009;entryY=0.58;entryDx=0;entryDy=0;entryPerimeter=0;" edge="1" parent="1" source="BYB5my-5IRVZ9kW4JfYy-53" target="BYB5my-5IRVZ9kW4JfYy-10">
          <mxGeometry relative="1" as="geometry" />
        </mxCell>
        <mxCell id="BYB5my-5IRVZ9kW4JfYy-57" value="" style="edgeStyle=orthogonalEdgeStyle;rounded=0;orthogonalLoop=1;jettySize=auto;html=1;exitX=0.25;exitY=1;exitDx=0;exitDy=0;entryX=0;entryY=0.28;entryDx=0;entryDy=0;entryPerimeter=0;" edge="1" parent="1" source="BYB5my-5IRVZ9kW4JfYy-2" target="BYB5my-5IRVZ9kW4JfYy-56">
          <mxGeometry relative="1" as="geometry">
            <mxPoint x="55" y="-120" as="sourcePoint" />
            <mxPoint x="100" y="448" as="targetPoint" />
          </mxGeometry>
        </mxCell>
        <mxCell id="BYB5my-5IRVZ9kW4JfYy-56" value="Requests Support" style="text;html=1;align=center;verticalAlign=middle;resizable=0;points=[];autosize=1;strokeColor=none;fillColor=none;" vertex="1" parent="1">
          <mxGeometry x="-5" y="360" width="120" height="30" as="geometry" />
        </mxCell>
        <mxCell id="BYB5my-5IRVZ9kW4JfYy-62" value="" style="edgeStyle=orthogonalEdgeStyle;rounded=0;orthogonalLoop=1;jettySize=auto;html=1;exitX=0.5;exitY=0;exitDx=0;exitDy=0;entryX=0.5;entryY=1;entryDx=0;entryDy=0;" edge="1" parent="1" source="BYB5my-5IRVZ9kW4JfYy-5" target="BYB5my-5IRVZ9kW4JfYy-60">
          <mxGeometry relative="1" as="geometry">
            <mxPoint x="315" y="625" as="sourcePoint" />
            <mxPoint x="270" y="465" as="targetPoint" />
          </mxGeometry>
        </mxCell>
        <mxCell id="BYB5my-5IRVZ9kW4JfYy-60" value="Processes Payment Data" style="text;html=1;align=center;verticalAlign=middle;resizable=0;points=[];autosize=1;strokeColor=none;fillColor=none;" vertex="1" parent="1">
          <mxGeometry x="230" y="520" width="160" height="30" as="geometry" />
        </mxCell>
        <mxCell id="BYB5my-5IRVZ9kW4JfYy-64" style="edgeStyle=orthogonalEdgeStyle;rounded=0;orthogonalLoop=1;jettySize=auto;html=1;exitX=0.5;exitY=0;exitDx=0;exitDy=0;entryX=0.41;entryY=1.04;entryDx=0;entryDy=0;entryPerimeter=0;" edge="1" parent="1" source="BYB5my-5IRVZ9kW4JfYy-65" target="BYB5my-5IRVZ9kW4JfYy-2">
          <mxGeometry relative="1" as="geometry" />
        </mxCell>
        <mxCell id="BYB5my-5IRVZ9kW4JfYy-66" value="" style="edgeStyle=orthogonalEdgeStyle;rounded=0;orthogonalLoop=1;jettySize=auto;html=1;exitX=0.5;exitY=0;exitDx=0;exitDy=0;entryX=0.41;entryY=1.04;entryDx=0;entryDy=0;entryPerimeter=0;" edge="1" parent="1" source="BYB5my-5IRVZ9kW4JfYy-12" target="BYB5my-5IRVZ9kW4JfYy-65">
          <mxGeometry relative="1" as="geometry">
            <mxPoint x="125" y="465" as="sourcePoint" />
            <mxPoint x="71" y="-118" as="targetPoint" />
          </mxGeometry>
        </mxCell>
        <mxCell id="BYB5my-5IRVZ9kW4JfYy-65" value="Provides Support" style="text;html=1;align=center;verticalAlign=middle;resizable=0;points=[];autosize=1;strokeColor=none;fillColor=none;" vertex="1" parent="1">
          <mxGeometry x="30" y="160" width="120" height="30" as="geometry" />
        </mxCell>
        <mxCell id="BYB5my-5IRVZ9kW4JfYy-68" value="Manages Shipping" style="text;html=1;align=center;verticalAlign=middle;resizable=0;points=[];autosize=1;strokeColor=none;fillColor=none;" vertex="1" parent="1">
          <mxGeometry x="790" y="75" width="120" height="30" as="geometry" />
        </mxCell>
        <mxCell id="BYB5my-5IRVZ9kW4JfYy-72" value="" style="edgeStyle=orthogonalEdgeStyle;rounded=0;orthogonalLoop=1;jettySize=auto;html=1;exitX=0;exitY=0.5;exitDx=0;exitDy=0;entryX=0.727;entryY=1.02;entryDx=0;entryDy=0;entryPerimeter=0;" edge="1" parent="1" source="BYB5my-5IRVZ9kW4JfYy-4" target="BYB5my-5IRVZ9kW4JfYy-71">
          <mxGeometry relative="1" as="geometry">
            <mxPoint x="1065" y="280" as="sourcePoint" />
            <mxPoint x="960" y="237" as="targetPoint" />
          </mxGeometry>
        </mxCell>
        <mxCell id="BYB5my-5IRVZ9kW4JfYy-71" value="Assists with order issues" style="text;html=1;align=center;verticalAlign=middle;resizable=0;points=[];autosize=1;strokeColor=none;fillColor=none;" vertex="1" parent="1">
          <mxGeometry x="910" y="290" width="150" height="30" as="geometry" />
        </mxCell>
        <mxCell id="BYB5my-5IRVZ9kW4JfYy-76" value="" style="edgeStyle=orthogonalEdgeStyle;rounded=0;orthogonalLoop=1;jettySize=auto;html=1;exitX=1;exitY=0.5;exitDx=0;exitDy=0;" edge="1" parent="1" source="BYB5my-5IRVZ9kW4JfYy-9" target="BYB5my-5IRVZ9kW4JfYy-75">
          <mxGeometry relative="1" as="geometry">
            <mxPoint x="435" y="270" as="sourcePoint" />
            <mxPoint x="560" y="270" as="targetPoint" />
          </mxGeometry>
        </mxCell>
        <mxCell id="BYB5my-5IRVZ9kW4JfYy-75" value="Retrieves Product Information" style="text;html=1;align=center;verticalAlign=middle;resizable=0;points=[];autosize=1;strokeColor=none;fillColor=none;" vertex="1" parent="1">
          <mxGeometry x="500" y="255" width="180" height="30" as="geometry" />
        </mxCell>
        <mxCell id="BYB5my-5IRVZ9kW4JfYy-80" value="" style="edgeStyle=orthogonalEdgeStyle;rounded=0;orthogonalLoop=1;jettySize=auto;html=1;exitX=1;exitY=0;exitDx=0;exitDy=0;entryX=0.68;entryY=-0.033;entryDx=0;entryDy=0;entryPerimeter=0;" edge="1" parent="1" source="BYB5my-5IRVZ9kW4JfYy-7" target="BYB5my-5IRVZ9kW4JfYy-79">
          <mxGeometry relative="1" as="geometry">
            <mxPoint x="309" y="380" as="sourcePoint" />
            <mxPoint x="463" y="439" as="targetPoint" />
          </mxGeometry>
        </mxCell>
        <mxCell id="BYB5my-5IRVZ9kW4JfYy-79" value="Records Payment Transactions" style="text;html=1;align=center;verticalAlign=middle;resizable=0;points=[];autosize=1;strokeColor=none;fillColor=none;" vertex="1" parent="1">
          <mxGeometry x="330" y="410" width="190" height="30" as="geometry" />
        </mxCell>
        <mxCell id="BYB5my-5IRVZ9kW4JfYy-81" style="edgeStyle=orthogonalEdgeStyle;rounded=0;orthogonalLoop=1;jettySize=auto;html=1;entryX=0.59;entryY=0.033;entryDx=0;entryDy=0;entryPerimeter=0;" edge="1" parent="1" source="BYB5my-5IRVZ9kW4JfYy-79" target="BYB5my-5IRVZ9kW4JfYy-17">
          <mxGeometry relative="1" as="geometry" />
        </mxCell>
        <mxCell id="BYB5my-5IRVZ9kW4JfYy-82" style="edgeStyle=orthogonalEdgeStyle;rounded=0;orthogonalLoop=1;jettySize=auto;html=1;entryX=0.009;entryY=0.3;entryDx=0;entryDy=0;entryPerimeter=0;" edge="1" parent="1" source="BYB5my-5IRVZ9kW4JfYy-68" target="BYB5my-5IRVZ9kW4JfYy-14">
          <mxGeometry relative="1" as="geometry" />
        </mxCell>
        <mxCell id="BYB5my-5IRVZ9kW4JfYy-84" style="edgeStyle=orthogonalEdgeStyle;rounded=0;orthogonalLoop=1;jettySize=auto;html=1;exitX=1;exitY=0.5;exitDx=0;exitDy=0;entryX=0;entryY=0.333;entryDx=0;entryDy=0;entryPerimeter=0;" edge="1" parent="1" source="BYB5my-5IRVZ9kW4JfYy-3" target="BYB5my-5IRVZ9kW4JfYy-68">
          <mxGeometry relative="1" as="geometry" />
        </mxCell>
        <mxCell id="BYB5my-5IRVZ9kW4JfYy-85" style="edgeStyle=orthogonalEdgeStyle;rounded=0;orthogonalLoop=1;jettySize=auto;html=1;entryX=0.773;entryY=0.95;entryDx=0;entryDy=0;entryPerimeter=0;" edge="1" parent="1" source="BYB5my-5IRVZ9kW4JfYy-71" target="BYB5my-5IRVZ9kW4JfYy-14">
          <mxGeometry relative="1" as="geometry" />
        </mxCell>
        <mxCell id="BYB5my-5IRVZ9kW4JfYy-90" style="edgeStyle=orthogonalEdgeStyle;rounded=0;orthogonalLoop=1;jettySize=auto;html=1;entryX=1;entryY=0.25;entryDx=0;entryDy=0;" edge="1" parent="1" source="BYB5my-5IRVZ9kW4JfYy-87" target="BYB5my-5IRVZ9kW4JfYy-20">
          <mxGeometry relative="1" as="geometry" />
        </mxCell>
        <mxCell id="BYB5my-5IRVZ9kW4JfYy-87" value="Checks Product Availability" style="text;html=1;align=center;verticalAlign=middle;resizable=0;points=[];autosize=1;strokeColor=none;fillColor=none;" vertex="1" parent="1">
          <mxGeometry x="770" y="235" width="170" height="30" as="geometry" />
        </mxCell>
        <mxCell id="BYB5my-5IRVZ9kW4JfYy-89" style="edgeStyle=orthogonalEdgeStyle;rounded=0;orthogonalLoop=1;jettySize=auto;html=1;entryX=-0.009;entryY=0.65;entryDx=0;entryDy=0;entryPerimeter=0;" edge="1" parent="1" source="BYB5my-5IRVZ9kW4JfYy-87" target="BYB5my-5IRVZ9kW4JfYy-14">
          <mxGeometry relative="1" as="geometry" />
        </mxCell>
        <mxCell id="BYB5my-5IRVZ9kW4JfYy-91" style="edgeStyle=orthogonalEdgeStyle;rounded=0;orthogonalLoop=1;jettySize=auto;html=1;exitX=1;exitY=0.5;exitDx=0;exitDy=0;entryX=0.39;entryY=-0.033;entryDx=0;entryDy=0;entryPerimeter=0;" edge="1" parent="1" source="BYB5my-5IRVZ9kW4JfYy-92" target="BYB5my-5IRVZ9kW4JfYy-18">
          <mxGeometry relative="1" as="geometry" />
        </mxCell>
        <mxCell id="BYB5my-5IRVZ9kW4JfYy-92" value="Stores and Retrieves Order Information" style="text;html=1;align=center;verticalAlign=middle;resizable=0;points=[];autosize=1;strokeColor=none;fillColor=none;" vertex="1" parent="1">
          <mxGeometry x="1040" y="100" width="230" height="30" as="geometry" />
        </mxCell>
        <mxCell id="BYB5my-5IRVZ9kW4JfYy-96" value="Manages Inventory" style="text;html=1;align=center;verticalAlign=middle;resizable=0;points=[];autosize=1;strokeColor=none;fillColor=none;" vertex="1" parent="1">
          <mxGeometry x="770" y="465" width="130" height="30" as="geometry" />
        </mxCell>
        <mxCell id="BYB5my-5IRVZ9kW4JfYy-100" value="Manages user account" style="text;html=1;align=center;verticalAlign=middle;resizable=0;points=[];autosize=1;strokeColor=none;fillColor=none;" vertex="1" parent="1">
          <mxGeometry x="570" y="-265" width="140" height="30" as="geometry" />
        </mxCell>
        <mxCell id="BYB5my-5IRVZ9kW4JfYy-104" value="Cart Data" style="html=1;dashed=0;whiteSpace=wrap;shape=partialRectangle;right=0;left=0;" vertex="1" parent="1">
          <mxGeometry x="670" y="-100" width="100" height="30" as="geometry" />
        </mxCell>
        <mxCell id="BYB5my-5IRVZ9kW4JfYy-107" value="" style="edgeStyle=orthogonalEdgeStyle;rounded=0;orthogonalLoop=1;jettySize=auto;html=1;exitX=1;exitY=0.5;exitDx=0;exitDy=0;" edge="1" parent="1" source="BYB5my-5IRVZ9kW4JfYy-41" target="BYB5my-5IRVZ9kW4JfYy-106">
          <mxGeometry relative="1" as="geometry">
            <mxPoint x="435" y="-120" as="sourcePoint" />
            <mxPoint x="550" y="-95" as="targetPoint" />
          </mxGeometry>
        </mxCell>
        <mxCell id="BYB5my-5IRVZ9kW4JfYy-106" value="Manages Cart Contents" style="text;html=1;align=center;verticalAlign=middle;resizable=0;points=[];autosize=1;strokeColor=none;fillColor=none;" vertex="1" parent="1">
          <mxGeometry x="480" y="-110" width="150" height="30" as="geometry" />
        </mxCell>
      </root>
    </mxGraphModel>
  </diagram>
</mxfile>
